<?xml version="1.0" encoding="UTF-8"?>
<svg xmlns="http://www.w3.org/2000/svg" version="1.1" viewBox="0 0 256 256">
  <defs>
    <style>
      .cls-1 {
        fill: #fe3398;
      }

      .cls-2 {
        fill: #fefdfe;
      }

      .cls-3 {
        fill: #fefefe;
      }
    </style>
  </defs>
  <!-- Generator: Adobe Illustrator 28.7.1, SVG Export Plug-In . SVG Version: 1.2.0 Build 142)  -->
  <g>
    <g id="sugar">
      <g>
        <path class="cls-1" d="M91.97,183.51v-11.34c-3.13,1.5-5.97,2.86-9.29,4.46-12.11-6.98-24.19-13.95-36.42-21.01v-44.55c12.07-7.07,24.12-14.12,36.74-21.51,2.41,1.54,4.99,3.19,8.46,5.4.32-4.02.57-7.13.85-10.59,11.91-6.89,23.99-13.87,36.63-21.18,12.21,7.02,24.29,13.97,37,21.29v11.53c3.37-1.7,6.04-3.04,9.2-4.63,13.21,7.61,26.92,14.26,38.78,23.03v41.35c-12.44,7.26-25.08,14.64-37.97,22.16-2.69-1.32-5.72-2.82-9.58-4.72-.23,3.91-.41,7.06-.61,10.59-12.06,6.91-24.16,13.85-36.48,20.92-12.5-7.1-24.62-13.99-37.31-21.19Z"/>
        <path class="cls-3" d="M174.62,105.01c9.65,5.43,18.27,10.28,27.08,15.23v28.06c-8.06,4.95-16.85,10.34-25.65,15.74-3.08-1.5-6.12-2.99-9.65-4.71v-19.69c-5.81-3.55-11.11-6.79-16.28-9.95v-8.98c6.62-6.73,16.48-9.08,24.5-15.71Z"/>
        <path class="cls-2" d="M128.81,118.5c-2.26,1.17-4.73,2.44-7.64,3.94-2.63-3.78,0-7.91-1.58-11.35-4.86-2.94-9.93-6-15.2-9.18v-10.12c7.43-4.41,15.72-9.32,24.74-14.67,8.33,4.93,16.61,9.83,24.67,14.6v11.88c-5.01,2.99-10.08,6.02-15.98,9.54v9.6c-3.38-1.59-5.86-2.76-9.02-4.25Z"/>
      </g>
    </g>
  </g>
</svg>